# xmcd
#
# Track frame offsets: 
#        150
#        19772
#        42280
#        63104
#        86988
#        106439
#        121502
#        140251
#        161072
#        181251
#        199854
#        213635
#        229823
#        247291
#        262917
#        283510
#        301136
#        325053
#
# Disc length: 4565 seconds
#
# Revision: 0
# Processed by: cddbd v1.5.2PL0 Copyright (c) Steve Scherf et al.
# Submitted via: ExactAudioCopy v0.99pb4
#
DISCID=fc11d312
DTITLE=Poly Hylo - Premium Blend
DYEAR=2003
DGENRE=Hip-Hop
TTITLE0=The Second Incoming
TTITLE1=Hybrid Logics
TTITLE2=Premium Blend
TTITLE3=Quit Work Featuring The Magnificant Mic Molesters
TTITLE4=Yes Ya'll
TTITLE5=Maintain Featuring Puro and Newtrendz
TTITLE6=Maybe Your'e The One Featuring Samson
TTITLE7=Influence
TTITLE8=Breakthrough Featuring Abstrak
TTITLE9=Frontline
TTITLE10=B-Boy Break (Intermission)
TTITLE11=C'mon Featuring Samson
TTITLE12=A Little Peace Featuring Imagewone and Newtrendz
TTITLE13=Writer's Block
TTITLE14=The Gathering
TTITLE15=Celebrate Featuring Imagewone
TTITLE16=Above and Beyond (A P-Body Version)
TTITLE17=One Life Two Live
EXTD=
EXTT0=
EXTT1=
EXTT2=
EXTT3=
EXTT4=
EXTT5=
EXTT6=
EXTT7=
EXTT8=
EXTT9=
EXTT10=
EXTT11=
EXTT12=
EXTT13=
EXTT14=
EXTT15=
EXTT16=
EXTT17=
PLAYORDER=
